<?xml version="1.0" encoding="iso-8859-1"?>
<!-- Generator: Adobe Illustrator 19.0.0, SVG Export Plug-In . SVG Version: 6.00 Build 0)  -->
<svg version="1.1" id="Capa_1" xmlns="http://www.w3.org/2000/svg" xmlns:xlink="http://www.w3.org/1999/xlink" x="0px" y="0px"
	 viewBox="0 0 512 512" style="enable-background:new 0 0 512 512;" xml:space="preserve">
<g>
	<g>
		<path d="M406.055,458.318h-3.002v-13.251c0-20.027-16.294-36.321-36.321-36.321H348.05v-40.464
			c30.153-16.04,55.648-39.672,73.908-68.624c19.632-31.126,30.01-67.112,30.01-104.065c0-44.274-14.456-86.034-41.805-120.767
			c-2.614-3.321-7.423-3.892-10.742-1.278c-3.32,2.614-3.891,7.423-1.278,10.742c25.204,32.009,38.526,70.497,38.526,111.303
			c0,34.061-9.562,67.223-27.651,95.903c-17.382,27.56-41.871,49.898-70.859,64.695c-0.405,0.124-0.804,0.27-1.19,0.463
			c-18.284,9.176-47.805,19.945-84.693,19.195c-26.628-0.55-53.339-7.187-77.243-19.194c-0.386-0.194-0.787-0.34-1.193-0.465
			c-28.988-14.797-53.476-37.135-70.859-64.695c-18.089-28.68-27.65-61.843-27.65-95.903c0-99.415,81.048-180.295,180.669-180.295
			c41.875,0,82.69,14.622,114.925,41.172c3.262,2.686,8.083,2.22,10.768-1.041c2.686-3.261,2.22-8.082-1.041-10.768
			C345.684,15.862,301.415,0,256,0C147.943,0,60.032,87.743,60.032,195.594c0,36.953,10.377,72.938,30.01,104.065
			c18.26,28.951,43.755,52.583,73.908,68.624v40.464h-18.682c-20.027,0-36.321,16.294-36.321,36.321v13.251h-3.002
			c-9.598,0-17.405,7.808-17.405,17.405v28.627c0,4.225,3.424,7.649,7.649,7.649h319.622c4.225,0,7.649-3.424,7.649-7.649v-28.627
			C423.46,466.125,415.652,458.318,406.055,458.318z M179.249,375.462c22.973,9.779,47.873,15.171,72.712,15.683
			c33.252,0.692,60.983-7.27,80.79-15.69v33.291H179.249V375.462z M408.161,496.701H103.839v-20.978
			c0-1.161,0.945-2.107,2.107-2.107h10.651h20.946h14.959c4.225,0,7.649-3.424,7.649-7.649s-3.424-7.649-7.649-7.649h-14.959
			h-13.297v-13.251c0-11.592,9.43-21.022,21.022-21.022H171.6h168.8h26.332c11.592,0,21.022,9.43,21.022,21.022v13.251H232.73
			h-37.391c-4.225,0-7.649,3.424-7.649,7.649s3.424,7.649,7.649,7.649h37.391h162.673h10.651c1.161,0,2.107,0.945,2.107,2.107
			V496.701z"/>
	</g>
</g>
<g>
</g>
<g>
</g>
<g>
</g>
<g>
</g>
<g>
</g>
<g>
</g>
<g>
</g>
<g>
</g>
<g>
</g>
<g>
</g>
<g>
</g>
<g>
</g>
<g>
</g>
<g>
</g>
<g>
</g>
</svg>
